<svg version="1" xmlns="http://www.w3.org/2000/svg" width="933.333" height="933.333" viewBox="0 0 700.000000 700.000000"><path d="M611.8 43.9c-1.4 1.2-6.3 10-11.9 21.6-6.9 14.4-9.9 19.7-11.4 20-1.1.3-10.3 1.6-20.5 3s-20 3.1-21.7 3.6c-4.8 1.5-7.3 5.3-7.3 10.8v4.6l16.6 16.5 16.6 16.5-3.7 21.7c-2.2 13.2-3.4 22.9-3 24.7.9 4.2 5.8 8.1 10.2 8.1 2.5 0 9.3-3 23.7-10.4l20.1-10.3 19.5 10.3c22.6 12 25 12.6 30.6 7 2.4-2.4 3.4-4.3 3.4-6.5 0-1.8-1.6-12.4-3.6-23.8l-3.5-20.6 16.4-16.6c10.3-10.4 16.7-17.6 17.1-19.3.8-3.6-1.5-9.2-4.8-11.4-1.7-1.1-9.6-2.7-22.4-4.5-10.8-1.6-20.7-3.1-22-3.4-1.7-.4-4.4-4.8-12.2-20.4-5.6-11.3-10.9-20.6-12.2-21.5-3.2-2.3-10.9-2.1-14 .3zm13.9 47.4c7.5 14.8 7.7 14.9 24.8 17.2 6.6.9 12.2 1.9 12.4 2.1.3.3-3.8 4.8-9.1 10.2-5.4 5.3-10.1 10.8-10.6 12.2-.7 1.8-.3 6.5 1.3 16 1.3 7.4 2.2 13.6 2.1 13.7-.2.2-6-2.6-12.9-6.2-7-3.6-13.6-6.5-14.7-6.5-1.1 0-7.7 2.9-14.6 6.5-6.9 3.6-12.7 6.5-12.8 6.5-.2 0 .7-6.1 2-13.5 1.3-7.6 2-14.5 1.5-16-.3-1.5-5.1-7.1-10.6-12.5-5.5-5.5-9.7-10.1-9.5-10.4.3-.2 5.9-1.2 12.5-2.1 17.6-2.4 17.4-2.2 24.7-17 3.5-6.9 6.5-12.5 6.8-12.5.3 0 3.3 5.6 6.7 12.3zM309.4 53c-53.9 6.2-98.3 37.1-121.5 84.5-8.8 18.1-12.6 31.3-15 52.1-3.3 29.4 5.1 66.9 20.7 91.6 1.3 2.1 2.4 4 2.4 4.3 0 .3-14.3.5-31.9.5h-31.8l-37.9 18.8c-20.9 10.3-46.8 23-57.8 28.2-23 11-27.6 14.6-32.9 25.7C.8 364.9.5 366.4.5 375c0 8.7.3 10.1 3.2 16 6 12.2 16.4 20 29.6 22.3 11 1.8 16.1.3 38.6-11.6 10.8-5.8 29.7-15.6 42.1-22l22.5-11.5 14.8-.7c9.7-.5 14.7-.4 14.7.3 0 .6-33 33.7-73.2 73.6-40.3 39.9-75 74.7-77.1 77.3-13.9 17.6-7.9 43.3 12.5 54.4 6 3.2 6.8 3.4 16.3 3.4 14.5 0 16.7-1.3 39.2-23.1 12.4-12 23.5-21.5 34.8-29.9 9.1-6.8 17-12.7 17.6-13.1.6-.4 5.4 3.7 10.9 9.1l9.9 9.8-36 35.6c-33.5 33.3-36.1 36.1-39.1 42.6-2.8 6-3.2 8.1-3.2 15s.4 9 3.1 14.7c9 19.1 30.4 26.8 49.1 17.7 5.6-2.7 12.4-9.1 54.9-51.3 40.7-40.2 58.2-58.6 107.5-112.6 56.3-61.6 59.1-64.4 62.1-64.1 1.8.1 18.7 2.5 37.6 5.2 19 2.7 35.9 4.9 37.6 4.9 2.5 0 11.3-5.4 40.6-24.9 35.3-23.5 38.2-25.6 52.7-39.2 8.4-7.9 16.4-16.1 17.8-18.3 6.1-9.1 8.1-22.5 4.9-33.2-6.5-22.1-33.4-33.8-53.9-23.5-3.4 1.7-16.7 11.2-29.6 21.1-12.9 9.9-28.7 21.8-35.1 26.5l-11.6 8.4-14.1-5.6c-7.8-3.1-14.2-5.9-14.2-6.2 0-.3 3.7-2.5 8.3-4.9 22.9-11.8 46.2-34.1 59.9-57.5 13.5-23 20.1-47.8 20.1-75.7 0-16.8-1.4-27.1-5.8-42.5-16.1-55.4-63.8-97.7-121-107-11.3-1.9-30.8-2.6-40.1-1.5zm30.1 23.8c.7.4-4.3 18.6-14.5 52.2l-15.5 51.5-6.1.6c-22.5 2.1-39.6 24.6-35.5 46.7 1.3 6.9 5.5 16 9.4 20.4 12.3 13.5 32.3 17.7 47.9 10 6.5-3.2 12.8-8.4 16.5-13.6l2-2.9 41.4 18.7c22.8 10.3 41.8 19.1 42.3 19.6 1.4 1.3-22.1 24.2-30.8 30-8.6 5.7-22.5 12.6-32.1 15.8-13.3 4.5-22.1 5.7-41 5.7-16-.1-19.2-.4-28.5-2.7-22.3-5.6-38.9-14.3-57.1-29.9-15.9-13.7-31.2-37.9-37.2-58.9-4.9-17-6.2-41-3.2-58.3 8.1-45.8 41.3-84.3 85.7-99.2 5.7-1.9 14-4.1 18.4-4.9 8.3-1.5 36.1-2.1 37.9-.8zm34.2 8.6c37.5 15.5 65.5 47.9 75.9 88.1 2.7 10.3 2.9 12.2 2.9 30.5 0 17.9-.3 20.4-2.7 29.7-2.5 9.6-8.7 25.8-9.8 25.8-.3 0-20.9-9.2-45.8-20.5l-45.1-20.5-1.1-5c-1.7-7.9-5.5-15.1-11.1-20.7l-5.2-5.2 15.9-52.8c8.7-29 16.4-52.8 16.9-52.8.6 0 4.7 1.6 9.2 3.4zm-57.2 120.9c12.7 7.2 12.2 24.9-.9 30.8-8.5 3.8-17.7 1.1-22.2-6.7-2.2-3.8-2.6-5.4-2.2-10.3.5-7 3.1-11.1 9-14 5.6-2.7 11.3-2.7 16.3.2zm-92.8 110.9c11 9.3 16.7 13.3 26.8 19.1 24.8 14 56.7 20.9 85.8 18.6 6.1-.5 11.9-1.2 12.9-1.5 1.6-.5 56.2 20.7 58.2 22.6.7.7 7.6 32.5 7.6 35 0 .3-15.1-1.5-33.5-4.1-25.8-3.7-34.3-4.5-36.9-3.8-2.9.8-12.7 11.1-55.3 57.9-28.5 31.3-52.2 56.9-52.6 56.9-.5.1-22-20.7-47.8-46.1L142 425.6l32.5-32.6c31.1-31.2 32.5-32.7 32.5-36.3 0-2.1-.7-5.1-1.5-6.7-2.9-5.6-4.9-6-33-6H147v-13.8c0-7.5.3-15.5.7-17.6l.6-3.9 33.3.5 33.3.5 8.8 7.5zm-99.8 7c-.1 4-.4 11.3-.8 16.1l-.6 8.9-16.5 8.3c-9 4.7-16.5 8.3-16.6 8.2-.5-.4-9.4-26.1-9.4-26.9 0-.9 41.4-21.8 43.1-21.8.5 0 .9 3.3.8 7.2zm391.7-5.3c7.8 3.5 11.5 12.9 8 20.3-1.4 3-20.4 21.8-21.9 21.8-1.1 0-19.8-26-19.3-26.9.3-.5 4.8-4.1 10-8.1 12.3-9.4 15.8-10.4 23.2-7.1zM63.5 363.1c2.6 7.7 4.5 14.1 4.4 14.3-1.9 1.5-22.8 12-25.2 12.7-7.1 2-16.7-3.8-18.8-11.3-1.1-4.4.1-10.4 2.9-13.7 1.6-2 28.4-15.9 30.9-16 .6-.1 3.2 6.2 5.8 14zm409-1.5c5.3 6.9 9.8 13 10 13.7.5 1.2-43.5 31.1-44.3 30.2-1-.9-7-33-6.4-33.7 1.5-1.5 29.8-22.7 30.4-22.7.4-.1 5 5.5 10.3 12.5zM193 508.7l27.5 27.3-29.2 29.2-29.3 29.3-9.5-9.5-9.6-9.5 20.5-20c13.5-13.1 20.7-20.9 21.2-22.8 1.6-6.7.4-8.4-21-29.5-26.7-26.6-22-26.3-53.1-2.9l-18 13.6-9.9-9.9-9.9-9.8 26.4-26 26.4-26 20 19.6c11 10.8 32.4 31.9 47.5 46.9zM65.8 520.3l9.2 9.3-9.7 9.6c-14.6 14.3-19.4 16.9-25.6 13.7-6.9-3.6-9.8-10.3-7.2-16.6C33.8 533.1 54.3 511 56 511c.3 0 4.7 4.2 9.8 9.3zm70.6 81.6l8.9 9-11.9 11.5c-14.6 14.2-18.3 15.6-26.6 10.2-4.5-2.9-6.3-10.8-3.7-15.9 1.4-2.8 22-23.7 23.4-23.7.6 0 5 4 9.9 8.9z"/><path d="M372.7 122.1c-1.5 6.1-2.6 11.3-2.5 11.4.2.1 2.4.9 5 1.9 11.5 4.2 23.4 14.8 28.3 25.1 1.4 3 3 8.8 3.7 12.9l1.2 7.6h22.9l-.6-7.5c-2.1-24.8-18.3-46.6-42.9-57.9-12.9-6-11.9-6.5-15.1 6.5zM408 215.5V227h23v-23h-23v11.5zM213.2 380c-13.6 13.2-25.7 25.5-27 27.3-1.9 2.5-2.2 4.1-1.9 7.6.5 4.3 1.4 5.3 26.9 30.8l26.4 26.3h9.8l25.8-25.7c14.1-14.1 26.2-26.9 26.9-28.5 2.6-6.3 1.5-7.7-26.4-35.6L247.4 356h-9.5l-24.7 24zm44.3 49l-15 15-14.7-14.7c-8.2-8.1-14.8-15.1-14.8-15.5 0-.4 6.6-7.3 14.8-15.2l14.7-14.5 15 14.9 15 15-15 15zM105 145.5V157h23v-23h-23v11.5zM82 169v11h23v-22H82v11zM129 169v11h22v-22h-22v11zM105 192v11h23v-22h-23v11zM549 460.5V472h22v-23h-22v11.5zM525 484v11h23v-22h-23v11zM572 484v11h23v-22h-23v11zM549 507v11h22v-22h-22v11zM327 542v11h23v-22h-23v11zM304 565.5V577h22v-23h-22v11.5zM350 565.5V577h23v-23h-23v11.5zM327 589v11h23v-22h-23v11zM467 589v11h23v-22h-23v11zM444 612v11h22v-22h-22v11zM490 612v11h23v-22h-23v11zM467 635.5V647h23v-23h-23v11.5z"/></svg>